<svg xmlns="http://www.w3.org/2000/svg" viewBox="0 0 544.000 514.000" width="544.000" height="514.000" role="img">
<title>Dendrogram</title>
<style>
.edge { fill: none; stroke: #334155; stroke-width: 2; stroke-linecap: round; }
.node { fill: #0f172a; }
.label { fill: #111827; font-family: Helvetica, Arial, sans-serif; }
</style>
<path class="edge" d="M 32.000,302.000 L 32.000,296.130 L 32.000,290.261 L 32.000,284.391 L 32.000,278.522 L 32.000,272.652 L 32.000,266.783 L 32.000,260.913 L 32.000,255.043 L 32.000,249.174 L 32.000,243.304 L 32.000,237.435 L 32.000,231.565 L 32.000,225.696 L 32.000,219.826 L 32.000,213.957 L 32.000,208.087 L 32.000,202.217 L 32.000,196.348 L 32.000,190.478 L 32.000,184.609 L 32.000,178.739 L 32.000,172.870 L 32.000,167.000 L 38.957,167.000 L 45.913,167.000 L 52.870,167.000 L 59.826,167.000 L 66.783,167.000 L 73.739,167.000 L 80.696,167.000 L 87.652,167.000 L 94.609,167.000 L 101.565,167.000 L 108.522,167.000 L 115.478,167.000 L 122.435,167.000 L 129.391,167.000 L 136.348,167.000 L 143.304,167.000 L 150.261,167.000 L 157.217,167.000 L 164.174,167.000 L 171.130,167.000 L 178.087,167.000 L 185.043,167.000 L 192.000,167.000" />
<path class="edge" d="M 192.000,167.000 L 192.000,163.087 L 192.000,159.174 L 192.000,155.261 L 192.000,151.348 L 192.000,147.435 L 192.000,143.522 L 192.000,139.609 L 192.000,135.696 L 192.000,131.783 L 192.000,127.870 L 192.000,123.957 L 192.000,120.043 L 192.000,116.130 L 192.000,112.217 L 192.000,108.304 L 192.000,104.391 L 192.000,100.478 L 192.000,96.565 L 192.000,92.652 L 192.000,88.739 L 192.000,84.826 L 192.000,80.913 L 192.000,77.000 L 198.957,77.000 L 205.913,77.000 L 212.870,77.000 L 219.826,77.000 L 226.783,77.000 L 233.739,77.000 L 240.696,77.000 L 247.652,77.000 L 254.609,77.000 L 261.565,77.000 L 268.522,77.000 L 275.478,77.000 L 282.435,77.000 L 289.391,77.000 L 296.348,77.000 L 303.304,77.000 L 310.261,77.000 L 317.217,77.000 L 324.174,77.000 L 331.130,77.000 L 338.087,77.000 L 345.043,77.000 L 352.000,77.000" />
<path class="edge" d="M 352.000,77.000 L 352.000,75.043 L 352.000,73.087 L 352.000,71.130 L 352.000,69.174 L 352.000,67.217 L 352.000,65.261 L 352.000,63.304 L 352.000,61.348 L 352.000,59.391 L 352.000,57.435 L 352.000,55.478 L 352.000,53.522 L 352.000,51.565 L 352.000,49.609 L 352.000,47.652 L 352.000,45.696 L 352.000,43.739 L 352.000,41.783 L 352.000,39.826 L 352.000,37.870 L 352.000,35.913 L 352.000,33.957 L 352.000,32.000 L 358.957,32.000 L 365.913,32.000 L 372.870,32.000 L 379.826,32.000 L 386.783,32.000 L 393.739,32.000 L 400.696,32.000 L 407.652,32.000 L 414.609,32.000 L 421.565,32.000 L 428.522,32.000 L 435.478,32.000 L 442.435,32.000 L 449.391,32.000 L 456.348,32.000 L 463.304,32.000 L 470.261,32.000 L 477.217,32.000 L 484.174,32.000 L 491.130,32.000 L 498.087,32.000 L 505.043,32.000 L 512.000,32.000" />
<path class="edge" d="M 352.000,77.000 L 352.000,78.957 L 352.000,80.913 L 352.000,82.870 L 352.000,84.826 L 352.000,86.783 L 352.000,88.739 L 352.000,90.696 L 352.000,92.652 L 352.000,94.609 L 352.000,96.565 L 352.000,98.522 L 352.000,100.478 L 352.000,102.435 L 352.000,104.391 L 352.000,106.348 L 352.000,108.304 L 352.000,110.261 L 352.000,112.217 L 352.000,114.174 L 352.000,116.130 L 352.000,118.087 L 352.000,120.043 L 352.000,122.000 L 358.957,122.000 L 365.913,122.000 L 372.870,122.000 L 379.826,122.000 L 386.783,122.000 L 393.739,122.000 L 400.696,122.000 L 407.652,122.000 L 414.609,122.000 L 421.565,122.000 L 428.522,122.000 L 435.478,122.000 L 442.435,122.000 L 449.391,122.000 L 456.348,122.000 L 463.304,122.000 L 470.261,122.000 L 477.217,122.000 L 484.174,122.000 L 491.130,122.000 L 498.087,122.000 L 505.043,122.000 L 512.000,122.000" />
<path class="edge" d="M 192.000,167.000 L 192.000,170.913 L 192.000,174.826 L 192.000,178.739 L 192.000,182.652 L 192.000,186.565 L 192.000,190.478 L 192.000,194.391 L 192.000,198.304 L 192.000,202.217 L 192.000,206.130 L 192.000,210.043 L 192.000,213.957 L 192.000,217.870 L 192.000,221.783 L 192.000,225.696 L 192.000,229.609 L 192.000,233.522 L 192.000,237.435 L 192.000,241.348 L 192.000,245.261 L 192.000,249.174 L 192.000,253.087 L 192.000,257.000 L 198.957,257.000 L 205.913,257.000 L 212.870,257.000 L 219.826,257.000 L 226.783,257.000 L 233.739,257.000 L 240.696,257.000 L 247.652,257.000 L 254.609,257.000 L 261.565,257.000 L 268.522,257.000 L 275.478,257.000 L 282.435,257.000 L 289.391,257.000 L 296.348,257.000 L 303.304,257.000 L 310.261,257.000 L 317.217,257.000 L 324.174,257.000 L 331.130,257.000 L 338.087,257.000 L 345.043,257.000 L 352.000,257.000" />
<path class="edge" d="M 352.000,257.000 L 352.000,255.043 L 352.000,253.087 L 352.000,251.130 L 352.000,249.174 L 352.000,247.217 L 352.000,245.261 L 352.000,243.304 L 352.000,241.348 L 352.000,239.391 L 352.000,237.435 L 352.000,235.478 L 352.000,233.522 L 352.000,231.565 L 352.000,229.609 L 352.000,227.652 L 352.000,225.696 L 352.000,223.739 L 352.000,221.783 L 352.000,219.826 L 352.000,217.870 L 352.000,215.913 L 352.000,213.957 L 352.000,212.000 L 358.957,212.000 L 365.913,212.000 L 372.870,212.000 L 379.826,212.000 L 386.783,212.000 L 393.739,212.000 L 400.696,212.000 L 407.652,212.000 L 414.609,212.000 L 421.565,212.000 L 428.522,212.000 L 435.478,212.000 L 442.435,212.000 L 449.391,212.000 L 456.348,212.000 L 463.304,212.000 L 470.261,212.000 L 477.217,212.000 L 484.174,212.000 L 491.130,212.000 L 498.087,212.000 L 505.043,212.000 L 512.000,212.000" />
<path class="edge" d="M 352.000,257.000 L 352.000,258.957 L 352.000,260.913 L 352.000,262.870 L 352.000,264.826 L 352.000,266.783 L 352.000,268.739 L 352.000,270.696 L 352.000,272.652 L 352.000,274.609 L 352.000,276.565 L 352.000,278.522 L 352.000,280.478 L 352.000,282.435 L 352.000,284.391 L 352.000,286.348 L 352.000,288.304 L 352.000,290.261 L 352.000,292.217 L 352.000,294.174 L 352.000,296.130 L 352.000,298.087 L 352.000,300.043 L 352.000,302.000 L 358.957,302.000 L 365.913,302.000 L 372.870,302.000 L 379.826,302.000 L 386.783,302.000 L 393.739,302.000 L 400.696,302.000 L 407.652,302.000 L 414.609,302.000 L 421.565,302.000 L 428.522,302.000 L 435.478,302.000 L 442.435,302.000 L 449.391,302.000 L 456.348,302.000 L 463.304,302.000 L 470.261,302.000 L 477.217,302.000 L 484.174,302.000 L 491.130,302.000 L 498.087,302.000 L 505.043,302.000 L 512.000,302.000" />
<path class="edge" d="M 32.000,302.000 L 32.000,307.870 L 32.000,313.739 L 32.000,319.609 L 32.000,325.478 L 32.000,331.348 L 32.000,337.217 L 32.000,343.087 L 32.000,348.957 L 32.000,354.826 L 32.000,360.696 L 32.000,366.565 L 32.000,372.435 L 32.000,378.304 L 32.000,384.174 L 32.000,390.043 L 32.000,395.913 L 32.000,401.783 L 32.000,407.652 L 32.000,413.522 L 32.000,419.391 L 32.000,425.261 L 32.000,431.130 L 32.000,437.000 L 38.957,437.000 L 45.913,437.000 L 52.870,437.000 L 59.826,437.000 L 66.783,437.000 L 73.739,437.000 L 80.696,437.000 L 87.652,437.000 L 94.609,437.000 L 101.565,437.000 L 108.522,437.000 L 115.478,437.000 L 122.435,437.000 L 129.391,437.000 L 136.348,437.000 L 143.304,437.000 L 150.261,437.000 L 157.217,437.000 L 164.174,437.000 L 171.130,437.000 L 178.087,437.000 L 185.043,437.000 L 192.000,437.000" />
<path class="edge" d="M 192.000,437.000 L 192.000,435.043 L 192.000,433.087 L 192.000,431.130 L 192.000,429.174 L 192.000,427.217 L 192.000,425.261 L 192.000,423.304 L 192.000,421.348 L 192.000,419.391 L 192.000,417.435 L 192.000,415.478 L 192.000,413.522 L 192.000,411.565 L 192.000,409.609 L 192.000,407.652 L 192.000,405.696 L 192.000,403.739 L 192.000,401.783 L 192.000,399.826 L 192.000,397.870 L 192.000,395.913 L 192.000,393.957 L 192.000,392.000 L 198.957,392.000 L 205.913,392.000 L 212.870,392.000 L 219.826,392.000 L 226.783,392.000 L 233.739,392.000 L 240.696,392.000 L 247.652,392.000 L 254.609,392.000 L 261.565,392.000 L 268.522,392.000 L 275.478,392.000 L 282.435,392.000 L 289.391,392.000 L 296.348,392.000 L 303.304,392.000 L 310.261,392.000 L 317.217,392.000 L 324.174,392.000 L 331.130,392.000 L 338.087,392.000 L 345.043,392.000 L 352.000,392.000" />
<path class="edge" d="M 192.000,437.000 L 192.000,438.957 L 192.000,440.913 L 192.000,442.870 L 192.000,444.826 L 192.000,446.783 L 192.000,448.739 L 192.000,450.696 L 192.000,452.652 L 192.000,454.609 L 192.000,456.565 L 192.000,458.522 L 192.000,460.478 L 192.000,462.435 L 192.000,464.391 L 192.000,466.348 L 192.000,468.304 L 192.000,470.261 L 192.000,472.217 L 192.000,474.174 L 192.000,476.130 L 192.000,478.087 L 192.000,480.043 L 192.000,482.000 L 198.957,482.000 L 205.913,482.000 L 212.870,482.000 L 219.826,482.000 L 226.783,482.000 L 233.739,482.000 L 240.696,482.000 L 247.652,482.000 L 254.609,482.000 L 261.565,482.000 L 268.522,482.000 L 275.478,482.000 L 282.435,482.000 L 289.391,482.000 L 296.348,482.000 L 303.304,482.000 L 310.261,482.000 L 317.217,482.000 L 324.174,482.000 L 331.130,482.000 L 338.087,482.000 L 345.043,482.000 L 352.000,482.000" />
<circle class="node" cx="32.000" cy="302.000" r="5.000" />
<text class="label" x="43.000" y="293.000" font-size="12">Life</text>
<circle class="node" cx="192.000" cy="167.000" r="5.000" />
<text class="label" x="203.000" y="158.000" font-size="12">Animals</text>
<circle class="node" cx="352.000" cy="77.000" r="5.000" />
<text class="label" x="363.000" y="68.000" font-size="12">Mammals</text>
<circle class="node" cx="512.000" cy="32.000" r="5.000" />
<text class="label" x="523.000" y="23.000" font-size="12">Fox</text>
<circle class="node" cx="512.000" cy="122.000" r="5.000" />
<text class="label" x="523.000" y="113.000" font-size="12">Whale</text>
<circle class="node" cx="352.000" cy="257.000" r="5.000" />
<text class="label" x="363.000" y="248.000" font-size="12">Birds</text>
<circle class="node" cx="512.000" cy="212.000" r="5.000" />
<text class="label" x="523.000" y="203.000" font-size="12">Eagle</text>
<circle class="node" cx="512.000" cy="302.000" r="5.000" />
<text class="label" x="523.000" y="293.000" font-size="12">Sparrow</text>
<circle class="node" cx="192.000" cy="437.000" r="5.000" />
<text class="label" x="203.000" y="428.000" font-size="12">Plants</text>
<circle class="node" cx="352.000" cy="392.000" r="5.000" />
<text class="label" x="363.000" y="383.000" font-size="12">Oak</text>
<circle class="node" cx="352.000" cy="482.000" r="5.000" />
<text class="label" x="363.000" y="473.000" font-size="12">Rose</text>
</svg>
