<svg xmlns="http://www.w3.org/2000/svg" viewBox="0 0 514.000 544.000" width="514.000" height="544.000" role="img">
<title>Dendrogram</title>
<style>
.edge { fill: none; stroke: #334155; stroke-width: 2; stroke-linecap: round; }
.node { fill: #0f172a; }
.label { fill: #111827; font-family: Helvetica, Arial, sans-serif; }
</style>
<path class="edge" d="M 302.000,32.000 L 296.130,32.000 L 290.261,32.000 L 284.391,32.000 L 278.522,32.000 L 272.652,32.000 L 266.783,32.000 L 260.913,32.000 L 255.043,32.000 L 249.174,32.000 L 243.304,32.000 L 237.435,32.000 L 231.565,32.000 L 225.696,32.000 L 219.826,32.000 L 213.957,32.000 L 208.087,32.000 L 202.217,32.000 L 196.348,32.000 L 190.478,32.000 L 184.609,32.000 L 178.739,32.000 L 172.870,32.000 L 167.000,32.000 L 167.000,38.957 L 167.000,45.913 L 167.000,52.870 L 167.000,59.826 L 167.000,66.783 L 167.000,73.739 L 167.000,80.696 L 167.000,87.652 L 167.000,94.609 L 167.000,101.565 L 167.000,108.522 L 167.000,115.478 L 167.000,122.435 L 167.000,129.391 L 167.000,136.348 L 167.000,143.304 L 167.000,150.261 L 167.000,157.217 L 167.000,164.174 L 167.000,171.130 L 167.000,178.087 L 167.000,185.043 L 167.000,192.000" />
<path class="edge" d="M 167.000,192.000 L 163.087,192.000 L 159.174,192.000 L 155.261,192.000 L 151.348,192.000 L 147.435,192.000 L 143.522,192.000 L 139.609,192.000 L 135.696,192.000 L 131.783,192.000 L 127.870,192.000 L 123.957,192.000 L 120.043,192.000 L 116.130,192.000 L 112.217,192.000 L 108.304,192.000 L 104.391,192.000 L 100.478,192.000 L 96.565,192.000 L 92.652,192.000 L 88.739,192.000 L 84.826,192.000 L 80.913,192.000 L 77.000,192.000 L 77.000,198.957 L 77.000,205.913 L 77.000,212.870 L 77.000,219.826 L 77.000,226.783 L 77.000,233.739 L 77.000,240.696 L 77.000,247.652 L 77.000,254.609 L 77.000,261.565 L 77.000,268.522 L 77.000,275.478 L 77.000,282.435 L 77.000,289.391 L 77.000,296.348 L 77.000,303.304 L 77.000,310.261 L 77.000,317.217 L 77.000,324.174 L 77.000,331.130 L 77.000,338.087 L 77.000,345.043 L 77.000,352.000" />
<path class="edge" d="M 77.000,352.000 L 75.043,352.000 L 73.087,352.000 L 71.130,352.000 L 69.174,352.000 L 67.217,352.000 L 65.261,352.000 L 63.304,352.000 L 61.348,352.000 L 59.391,352.000 L 57.435,352.000 L 55.478,352.000 L 53.522,352.000 L 51.565,352.000 L 49.609,352.000 L 47.652,352.000 L 45.696,352.000 L 43.739,352.000 L 41.783,352.000 L 39.826,352.000 L 37.870,352.000 L 35.913,352.000 L 33.957,352.000 L 32.000,352.000 L 32.000,358.957 L 32.000,365.913 L 32.000,372.870 L 32.000,379.826 L 32.000,386.783 L 32.000,393.739 L 32.000,400.696 L 32.000,407.652 L 32.000,414.609 L 32.000,421.565 L 32.000,428.522 L 32.000,435.478 L 32.000,442.435 L 32.000,449.391 L 32.000,456.348 L 32.000,463.304 L 32.000,470.261 L 32.000,477.217 L 32.000,484.174 L 32.000,491.130 L 32.000,498.087 L 32.000,505.043 L 32.000,512.000" />
<path class="edge" d="M 77.000,352.000 L 78.957,352.000 L 80.913,352.000 L 82.870,352.000 L 84.826,352.000 L 86.783,352.000 L 88.739,352.000 L 90.696,352.000 L 92.652,352.000 L 94.609,352.000 L 96.565,352.000 L 98.522,352.000 L 100.478,352.000 L 102.435,352.000 L 104.391,352.000 L 106.348,352.000 L 108.304,352.000 L 110.261,352.000 L 112.217,352.000 L 114.174,352.000 L 116.130,352.000 L 118.087,352.000 L 120.043,352.000 L 122.000,352.000 L 122.000,358.957 L 122.000,365.913 L 122.000,372.870 L 122.000,379.826 L 122.000,386.783 L 122.000,393.739 L 122.000,400.696 L 122.000,407.652 L 122.000,414.609 L 122.000,421.565 L 122.000,428.522 L 122.000,435.478 L 122.000,442.435 L 122.000,449.391 L 122.000,456.348 L 122.000,463.304 L 122.000,470.261 L 122.000,477.217 L 122.000,484.174 L 122.000,491.130 L 122.000,498.087 L 122.000,505.043 L 122.000,512.000" />
<path class="edge" d="M 167.000,192.000 L 170.913,192.000 L 174.826,192.000 L 178.739,192.000 L 182.652,192.000 L 186.565,192.000 L 190.478,192.000 L 194.391,192.000 L 198.304,192.000 L 202.217,192.000 L 206.130,192.000 L 210.043,192.000 L 213.957,192.000 L 217.870,192.000 L 221.783,192.000 L 225.696,192.000 L 229.609,192.000 L 233.522,192.000 L 237.435,192.000 L 241.348,192.000 L 245.261,192.000 L 249.174,192.000 L 253.087,192.000 L 257.000,192.000 L 257.000,198.957 L 257.000,205.913 L 257.000,212.870 L 257.000,219.826 L 257.000,226.783 L 257.000,233.739 L 257.000,240.696 L 257.000,247.652 L 257.000,254.609 L 257.000,261.565 L 257.000,268.522 L 257.000,275.478 L 257.000,282.435 L 257.000,289.391 L 257.000,296.348 L 257.000,303.304 L 257.000,310.261 L 257.000,317.217 L 257.000,324.174 L 257.000,331.130 L 257.000,338.087 L 257.000,345.043 L 257.000,352.000" />
<path class="edge" d="M 257.000,352.000 L 255.043,352.000 L 253.087,352.000 L 251.130,352.000 L 249.174,352.000 L 247.217,352.000 L 245.261,352.000 L 243.304,352.000 L 241.348,352.000 L 239.391,352.000 L 237.435,352.000 L 235.478,352.000 L 233.522,352.000 L 231.565,352.000 L 229.609,352.000 L 227.652,352.000 L 225.696,352.000 L 223.739,352.000 L 221.783,352.000 L 219.826,352.000 L 217.870,352.000 L 215.913,352.000 L 213.957,352.000 L 212.000,352.000 L 212.000,358.957 L 212.000,365.913 L 212.000,372.870 L 212.000,379.826 L 212.000,386.783 L 212.000,393.739 L 212.000,400.696 L 212.000,407.652 L 212.000,414.609 L 212.000,421.565 L 212.000,428.522 L 212.000,435.478 L 212.000,442.435 L 212.000,449.391 L 212.000,456.348 L 212.000,463.304 L 212.000,470.261 L 212.000,477.217 L 212.000,484.174 L 212.000,491.130 L 212.000,498.087 L 212.000,505.043 L 212.000,512.000" />
<path class="edge" d="M 257.000,352.000 L 258.957,352.000 L 260.913,352.000 L 262.870,352.000 L 264.826,352.000 L 266.783,352.000 L 268.739,352.000 L 270.696,352.000 L 272.652,352.000 L 274.609,352.000 L 276.565,352.000 L 278.522,352.000 L 280.478,352.000 L 282.435,352.000 L 284.391,352.000 L 286.348,352.000 L 288.304,352.000 L 290.261,352.000 L 292.217,352.000 L 294.174,352.000 L 296.130,352.000 L 298.087,352.000 L 300.043,352.000 L 302.000,352.000 L 302.000,358.957 L 302.000,365.913 L 302.000,372.870 L 302.000,379.826 L 302.000,386.783 L 302.000,393.739 L 302.000,400.696 L 302.000,407.652 L 302.000,414.609 L 302.000,421.565 L 302.000,428.522 L 302.000,435.478 L 302.000,442.435 L 302.000,449.391 L 302.000,456.348 L 302.000,463.304 L 302.000,470.261 L 302.000,477.217 L 302.000,484.174 L 302.000,491.130 L 302.000,498.087 L 302.000,505.043 L 302.000,512.000" />
<path class="edge" d="M 302.000,32.000 L 307.870,32.000 L 313.739,32.000 L 319.609,32.000 L 325.478,32.000 L 331.348,32.000 L 337.217,32.000 L 343.087,32.000 L 348.957,32.000 L 354.826,32.000 L 360.696,32.000 L 366.565,32.000 L 372.435,32.000 L 378.304,32.000 L 384.174,32.000 L 390.043,32.000 L 395.913,32.000 L 401.783,32.000 L 407.652,32.000 L 413.522,32.000 L 419.391,32.000 L 425.261,32.000 L 431.130,32.000 L 437.000,32.000 L 437.000,38.957 L 437.000,45.913 L 437.000,52.870 L 437.000,59.826 L 437.000,66.783 L 437.000,73.739 L 437.000,80.696 L 437.000,87.652 L 437.000,94.609 L 437.000,101.565 L 437.000,108.522 L 437.000,115.478 L 437.000,122.435 L 437.000,129.391 L 437.000,136.348 L 437.000,143.304 L 437.000,150.261 L 437.000,157.217 L 437.000,164.174 L 437.000,171.130 L 437.000,178.087 L 437.000,185.043 L 437.000,192.000" />
<path class="edge" d="M 437.000,192.000 L 435.043,192.000 L 433.087,192.000 L 431.130,192.000 L 429.174,192.000 L 427.217,192.000 L 425.261,192.000 L 423.304,192.000 L 421.348,192.000 L 419.391,192.000 L 417.435,192.000 L 415.478,192.000 L 413.522,192.000 L 411.565,192.000 L 409.609,192.000 L 407.652,192.000 L 405.696,192.000 L 403.739,192.000 L 401.783,192.000 L 399.826,192.000 L 397.870,192.000 L 395.913,192.000 L 393.957,192.000 L 392.000,192.000 L 392.000,198.957 L 392.000,205.913 L 392.000,212.870 L 392.000,219.826 L 392.000,226.783 L 392.000,233.739 L 392.000,240.696 L 392.000,247.652 L 392.000,254.609 L 392.000,261.565 L 392.000,268.522 L 392.000,275.478 L 392.000,282.435 L 392.000,289.391 L 392.000,296.348 L 392.000,303.304 L 392.000,310.261 L 392.000,317.217 L 392.000,324.174 L 392.000,331.130 L 392.000,338.087 L 392.000,345.043 L 392.000,352.000" />
<path class="edge" d="M 437.000,192.000 L 438.957,192.000 L 440.913,192.000 L 442.870,192.000 L 444.826,192.000 L 446.783,192.000 L 448.739,192.000 L 450.696,192.000 L 452.652,192.000 L 454.609,192.000 L 456.565,192.000 L 458.522,192.000 L 460.478,192.000 L 462.435,192.000 L 464.391,192.000 L 466.348,192.000 L 468.304,192.000 L 470.261,192.000 L 472.217,192.000 L 474.174,192.000 L 476.130,192.000 L 478.087,192.000 L 480.043,192.000 L 482.000,192.000 L 482.000,198.957 L 482.000,205.913 L 482.000,212.870 L 482.000,219.826 L 482.000,226.783 L 482.000,233.739 L 482.000,240.696 L 482.000,247.652 L 482.000,254.609 L 482.000,261.565 L 482.000,268.522 L 482.000,275.478 L 482.000,282.435 L 482.000,289.391 L 482.000,296.348 L 482.000,303.304 L 482.000,310.261 L 482.000,317.217 L 482.000,324.174 L 482.000,331.130 L 482.000,338.087 L 482.000,345.043 L 482.000,352.000" />
<circle class="node" cx="302.000" cy="32.000" r="5.000" />
<text class="label" x="313.000" y="23.000" font-size="12">Life</text>
<circle class="node" cx="167.000" cy="192.000" r="5.000" />
<text class="label" x="178.000" y="183.000" font-size="12">Animals</text>
<circle class="node" cx="77.000" cy="352.000" r="5.000" />
<text class="label" x="88.000" y="343.000" font-size="12">Mammals</text>
<circle class="node" cx="32.000" cy="512.000" r="5.000" />
<text class="label" x="43.000" y="503.000" font-size="12">Fox</text>
<circle class="node" cx="122.000" cy="512.000" r="5.000" />
<text class="label" x="133.000" y="503.000" font-size="12">Whale</text>
<circle class="node" cx="257.000" cy="352.000" r="5.000" />
<text class="label" x="268.000" y="343.000" font-size="12">Birds</text>
<circle class="node" cx="212.000" cy="512.000" r="5.000" />
<text class="label" x="223.000" y="503.000" font-size="12">Eagle</text>
<circle class="node" cx="302.000" cy="512.000" r="5.000" />
<text class="label" x="313.000" y="503.000" font-size="12">Sparrow</text>
<circle class="node" cx="437.000" cy="192.000" r="5.000" />
<text class="label" x="448.000" y="183.000" font-size="12">Plants</text>
<circle class="node" cx="392.000" cy="352.000" r="5.000" />
<text class="label" x="403.000" y="343.000" font-size="12">Oak</text>
<circle class="node" cx="482.000" cy="352.000" r="5.000" />
<text class="label" x="493.000" y="343.000" font-size="12">Rose</text>
</svg>
