<svg xmlns="http://www.w3.org/2000/svg" viewBox="0 0 756.820 1024.000" width="756.820" height="1024.000" role="img">
<title>Dendrogram</title>
<style>
.edge { fill: none; stroke: #334155; stroke-width: 2; stroke-linecap: round; }
.node { fill: #0f172a; }
.label { fill: #111827; font-family: Helvetica, Arial, sans-serif; }
</style>
<path class="edge" d="M 309.128,512.000 L 309.689,513.709 L 310.351,515.323 L 311.111,516.843 L 311.969,518.271 L 312.923,519.609 L 313.971,520.860 L 315.113,522.024 L 316.347,523.104 L 317.671,524.102 L 319.085,525.020 L 320.587,525.860 L 322.175,526.623 L 323.848,527.312 L 325.605,527.928 L 327.444,528.474 L 329.365,528.952 L 331.365,529.362 L 333.443,529.708 L 335.598,529.991 L 337.829,530.213 L 340.134,530.376 L 342.511,530.483 L 344.960,530.534 L 347.479,530.532 L 350.067,530.478 L 352.722,530.376 L 355.443,530.226 L 358.229,530.031 L 361.078,529.792 L 363.988,529.512 L 366.959,529.192 L 369.989,528.834 L 373.077,528.441 L 376.221,528.014 L 379.420,527.555 L 382.673,527.066 L 385.978,526.549 L 389.334,526.006 L 392.739,525.439 L 396.193,524.849 L 399.693,524.239 L 403.239,523.611 L 406.828,522.967 L 410.460,522.308 L 414.134,521.636 L 417.847,520.954 L 421.599,520.263 L 425.388,519.566 L 429.213,518.864 L 433.072,518.158 L 436.965,517.452 L 440.889,516.747 L 444.843,516.044 L 448.826,515.347 L 452.837,514.656 L 456.874,513.974 L 460.936,513.303 L 465.021,512.644 L 469.128,512.000" />
<path class="edge" d="M 469.128,512.000 L 473.025,511.823 L 476.588,511.297 L 479.828,510.433 L 482.754,509.242 L 485.377,507.733 L 487.708,505.916 L 489.758,503.801 L 491.537,501.400 L 493.055,498.720 L 494.323,495.774 L 495.351,492.571 L 496.150,489.120 L 496.731,485.433 L 497.104,481.520 L 497.279,477.389 L 497.267,473.052 L 497.079,468.519 L 496.725,463.800 L 496.216,458.904 L 495.561,453.843 L 494.772,448.626 L 493.860,443.263 L 492.834,437.764 L 491.705,432.140 L 490.484,426.401 L 489.181,420.556 L 487.807,414.616 L 486.372,408.591 L 484.886,402.491 L 483.361,396.327 L 481.807,390.108 L 480.234,383.844 L 478.653,377.546 L 477.074,371.224 L 475.509,364.887 L 473.966,358.547 L 472.457,352.212 L 470.993,345.894 L 469.584,339.602 L 468.240,333.346 L 466.972,327.137 L 465.791,320.985 L 464.706,314.899 L 463.729,308.890 L 462.870,302.969 L 462.140,297.144 L 461.549,291.427 L 461.107,285.827 L 460.825,280.355 L 460.714,275.020 L 460.785,269.834 L 461.046,264.804 L 461.510,259.943 L 462.187,255.261 L 463.087,250.766 L 464.220,246.470 L 465.598,242.382 L 467.230,238.512 L 469.128,234.872" />
<path class="edge" d="M 469.128,234.872 L 470.957,231.362 L 472.386,227.879 L 473.426,224.420 L 474.091,220.984 L 474.394,217.570 L 474.348,214.178 L 473.965,210.805 L 473.259,207.450 L 472.241,204.113 L 470.926,200.791 L 469.325,197.484 L 467.452,194.191 L 465.320,190.910 L 462.941,187.641 L 460.329,184.381 L 457.495,181.129 L 454.454,177.885 L 451.217,174.647 L 447.799,171.414 L 444.210,168.185 L 440.465,164.958 L 436.577,161.733 L 432.557,158.507 L 428.420,155.280 L 424.177,152.051 L 419.842,148.818 L 415.428,145.580 L 410.947,142.336 L 406.412,139.084 L 401.836,135.824 L 397.232,132.554 L 392.613,129.273 L 387.992,125.979 L 383.381,122.672 L 378.794,119.351 L 374.242,116.013 L 369.740,112.658 L 365.300,109.285 L 360.935,105.892 L 356.657,102.478 L 352.480,99.041 L 348.416,95.582 L 344.478,92.098 L 340.680,88.588 L 337.033,85.051 L 333.551,81.485 L 330.247,77.890 L 327.133,74.265 L 324.222,70.607 L 321.528,66.916 L 319.063,63.191 L 316.839,59.430 L 314.870,55.632 L 313.169,51.796 L 311.749,47.920 L 310.622,44.004 L 309.800,40.046 L 309.298,36.045 L 309.128,32.000" />
<path class="edge" d="M 469.128,234.872 L 471.253,231.533 L 473.556,228.554 L 476.031,225.924 L 478.674,223.630 L 481.479,221.660 L 484.440,220.004 L 487.553,218.649 L 490.811,217.584 L 494.210,216.796 L 497.744,216.275 L 501.408,216.007 L 505.196,215.983 L 509.104,216.189 L 513.125,216.614 L 517.254,217.247 L 521.487,218.075 L 525.817,219.087 L 530.239,220.271 L 534.749,221.615 L 539.339,223.108 L 544.006,224.738 L 548.744,226.493 L 553.547,228.361 L 558.411,230.330 L 563.329,232.390 L 568.296,234.528 L 573.308,236.732 L 578.358,238.991 L 583.441,241.292 L 588.552,243.625 L 593.686,245.977 L 598.837,248.336 L 604.000,250.692 L 609.169,253.031 L 614.340,255.343 L 619.506,257.616 L 624.662,259.837 L 629.804,261.996 L 634.925,264.080 L 640.021,266.078 L 645.085,267.977 L 650.113,269.767 L 655.099,271.435 L 660.038,272.969 L 664.925,274.359 L 669.754,275.592 L 674.519,276.656 L 679.216,277.540 L 683.839,278.232 L 688.382,278.720 L 692.841,278.992 L 697.210,279.037 L 701.484,278.843 L 705.656,278.398 L 709.723,277.690 L 713.678,276.709 L 717.516,275.441 L 721.232,273.875 L 724.820,272.000" />
<path class="edge" d="M 469.128,512.000 L 473.025,512.177 L 476.588,512.703 L 479.828,513.567 L 482.754,514.758 L 485.377,516.267 L 487.708,518.084 L 489.758,520.199 L 491.537,522.600 L 493.055,525.280 L 494.323,528.226 L 495.351,531.429 L 496.150,534.880 L 496.731,538.567 L 497.104,542.480 L 497.279,546.611 L 497.267,550.948 L 497.079,555.481 L 496.725,560.200 L 496.216,565.096 L 495.561,570.157 L 494.772,575.374 L 493.860,580.737 L 492.834,586.236 L 491.705,591.860 L 490.484,597.599 L 489.181,603.444 L 487.807,609.384 L 486.372,615.409 L 484.886,621.509 L 483.361,627.673 L 481.807,633.892 L 480.234,640.156 L 478.653,646.454 L 477.074,652.776 L 475.509,659.113 L 473.966,665.453 L 472.457,671.788 L 470.993,678.106 L 469.584,684.398 L 468.240,690.654 L 466.972,696.863 L 465.791,703.015 L 464.706,709.101 L 463.729,715.110 L 462.870,721.031 L 462.140,726.856 L 461.549,732.573 L 461.107,738.173 L 460.825,743.645 L 460.714,748.980 L 460.785,754.166 L 461.046,759.196 L 461.510,764.057 L 462.187,768.739 L 463.087,773.234 L 464.220,777.530 L 465.598,781.618 L 467.230,785.488 L 469.128,789.128" />
<path class="edge" d="M 469.128,789.128 L 471.253,792.467 L 473.556,795.446 L 476.031,798.076 L 478.674,800.370 L 481.479,802.340 L 484.440,803.996 L 487.553,805.351 L 490.811,806.416 L 494.210,807.204 L 497.744,807.725 L 501.408,807.993 L 505.196,808.017 L 509.104,807.811 L 513.125,807.386 L 517.254,806.753 L 521.487,805.925 L 525.817,804.913 L 530.239,803.729 L 534.749,802.385 L 539.339,800.892 L 544.006,799.262 L 548.744,797.507 L 553.547,795.639 L 558.411,793.670 L 563.329,791.610 L 568.296,789.472 L 573.308,787.268 L 578.358,785.009 L 583.441,782.708 L 588.552,780.375 L 593.686,778.023 L 598.837,775.664 L 604.000,773.308 L 609.169,770.969 L 614.340,768.657 L 619.506,766.384 L 624.662,764.163 L 629.804,762.004 L 634.925,759.920 L 640.021,757.922 L 645.085,756.023 L 650.113,754.233 L 655.099,752.565 L 660.038,751.031 L 664.925,749.641 L 669.754,748.408 L 674.519,747.344 L 679.216,746.460 L 683.839,745.768 L 688.382,745.280 L 692.841,745.008 L 697.210,744.963 L 701.484,745.157 L 705.656,745.602 L 709.723,746.310 L 713.678,747.291 L 717.516,748.559 L 721.232,750.125 L 724.820,752.000" />
<path class="edge" d="M 469.128,789.128 L 470.957,792.638 L 472.386,796.121 L 473.426,799.580 L 474.091,803.016 L 474.394,806.430 L 474.348,809.822 L 473.965,813.195 L 473.259,816.550 L 472.241,819.887 L 470.926,823.209 L 469.325,826.516 L 467.452,829.809 L 465.320,833.090 L 462.941,836.359 L 460.329,839.619 L 457.495,842.871 L 454.454,846.115 L 451.217,849.353 L 447.799,852.586 L 444.210,855.815 L 440.465,859.042 L 436.577,862.267 L 432.557,865.493 L 428.420,868.720 L 424.177,871.949 L 419.842,875.182 L 415.428,878.420 L 410.947,881.664 L 406.412,884.916 L 401.836,888.176 L 397.232,891.446 L 392.613,894.727 L 387.992,898.021 L 383.381,901.328 L 378.794,904.649 L 374.242,907.987 L 369.740,911.342 L 365.300,914.715 L 360.935,918.108 L 356.657,921.522 L 352.480,924.959 L 348.416,928.418 L 344.478,931.902 L 340.680,935.412 L 337.033,938.949 L 333.551,942.515 L 330.247,946.110 L 327.133,949.735 L 324.222,953.393 L 321.528,957.084 L 319.063,960.809 L 316.839,964.570 L 314.870,968.368 L 313.169,972.204 L 311.749,976.080 L 310.622,979.996 L 309.800,983.954 L 309.298,987.955 L 309.128,992.000" />
<path class="edge" d="M 309.128,512.000 L 308.567,513.709 L 307.905,515.323 L 307.145,516.843 L 306.287,518.271 L 305.334,519.609 L 304.285,520.860 L 303.143,522.024 L 301.909,523.104 L 300.585,524.102 L 299.171,525.020 L 297.670,525.860 L 296.081,526.623 L 294.408,527.312 L 292.651,527.928 L 290.812,528.474 L 288.892,528.952 L 286.892,529.362 L 284.813,529.708 L 282.658,529.991 L 280.428,530.213 L 278.123,530.376 L 275.745,530.483 L 273.296,530.534 L 270.777,530.532 L 268.189,530.478 L 265.534,530.376 L 262.813,530.226 L 260.028,530.031 L 257.179,529.792 L 254.268,529.512 L 251.297,529.192 L 248.267,528.834 L 245.179,528.441 L 242.035,528.014 L 238.836,527.555 L 235.583,527.066 L 232.278,526.549 L 228.922,526.006 L 225.517,525.439 L 222.063,524.849 L 218.563,524.239 L 215.018,523.611 L 211.428,522.967 L 207.796,522.308 L 204.122,521.636 L 200.409,520.954 L 196.657,520.263 L 192.868,519.566 L 189.043,518.864 L 185.184,518.158 L 181.292,517.452 L 177.368,516.747 L 173.413,516.044 L 169.430,515.347 L 165.419,514.656 L 161.382,513.974 L 157.321,513.303 L 153.235,512.644 L 149.128,512.000" />
<path class="edge" d="M 149.128,512.000 L 145.156,512.102 L 141.371,512.406 L 137.767,512.904 L 134.337,513.592 L 131.076,514.464 L 127.976,515.513 L 125.033,516.733 L 122.239,518.120 L 119.589,519.667 L 117.076,521.368 L 114.694,523.218 L 112.436,525.210 L 110.297,527.338 L 108.270,529.598 L 106.349,531.983 L 104.528,534.486 L 102.800,537.104 L 101.159,539.828 L 99.600,542.655 L 98.115,545.577 L 96.699,548.589 L 95.345,551.685 L 94.047,554.860 L 92.799,558.107 L 91.594,561.421 L 90.427,564.795 L 89.290,568.225 L 88.179,571.703 L 87.086,575.225 L 86.006,578.784 L 84.931,582.374 L 83.857,585.991 L 82.776,589.627 L 81.683,593.277 L 80.571,596.936 L 79.433,600.596 L 78.265,604.254 L 77.058,607.902 L 75.808,611.534 L 74.508,615.146 L 73.152,618.731 L 71.733,622.283 L 70.245,625.796 L 68.683,629.265 L 67.039,632.684 L 65.308,636.047 L 63.482,639.348 L 61.557,642.581 L 59.526,645.740 L 57.382,648.820 L 55.120,651.815 L 52.733,654.718 L 50.214,657.525 L 47.559,660.229 L 44.759,662.824 L 41.810,665.304 L 38.704,667.664 L 35.436,669.898 L 32.000,672.000" />
<path class="edge" d="M 149.128,512.000 L 145.156,511.898 L 141.371,511.594 L 137.767,511.096 L 134.337,510.408 L 131.076,509.536 L 127.976,508.487 L 125.033,507.267 L 122.239,505.880 L 119.589,504.333 L 117.076,502.632 L 114.694,500.782 L 112.436,498.790 L 110.297,496.662 L 108.270,494.402 L 106.349,492.017 L 104.528,489.514 L 102.800,486.896 L 101.159,484.172 L 99.600,481.345 L 98.115,478.423 L 96.699,475.411 L 95.345,472.315 L 94.047,469.140 L 92.799,465.893 L 91.594,462.579 L 90.427,459.205 L 89.290,455.775 L 88.179,452.297 L 87.086,448.775 L 86.006,445.216 L 84.931,441.626 L 83.857,438.009 L 82.776,434.373 L 81.683,430.723 L 80.571,427.064 L 79.433,423.404 L 78.265,419.746 L 77.058,416.098 L 75.808,412.466 L 74.508,408.854 L 73.152,405.269 L 71.733,401.717 L 70.245,398.204 L 68.683,394.735 L 67.039,391.316 L 65.308,387.953 L 63.482,384.652 L 61.557,381.419 L 59.526,378.260 L 57.382,375.180 L 55.120,372.185 L 52.733,369.282 L 50.214,366.475 L 47.559,363.771 L 44.759,361.176 L 41.810,358.696 L 38.704,356.336 L 35.436,354.102 L 32.000,352.000" />
<circle class="node" cx="309.128" cy="512.000" r="5.000" />
<text class="label" x="320.128" y="503.000" font-size="12">Life</text>
<circle class="node" cx="469.128" cy="512.000" r="5.000" />
<text class="label" x="480.128" y="503.000" font-size="12">Animals</text>
<circle class="node" cx="469.128" cy="234.872" r="5.000" />
<text class="label" x="480.128" y="225.872" font-size="12">Mammals</text>
<circle class="node" cx="309.128" cy="32.000" r="5.000" />
<text class="label" x="320.128" y="23.000" font-size="12">Fox</text>
<circle class="node" cx="724.820" cy="272.000" r="5.000" />
<text class="label" x="735.820" y="263.000" font-size="12">Whale</text>
<circle class="node" cx="469.128" cy="789.128" r="5.000" />
<text class="label" x="480.128" y="780.128" font-size="12">Birds</text>
<circle class="node" cx="724.820" cy="752.000" r="5.000" />
<text class="label" x="735.820" y="743.000" font-size="12">Eagle</text>
<circle class="node" cx="309.128" cy="992.000" r="5.000" />
<text class="label" x="320.128" y="983.000" font-size="12">Sparrow</text>
<circle class="node" cx="149.128" cy="512.000" r="5.000" />
<text class="label" x="160.128" y="503.000" font-size="12">Plants</text>
<circle class="node" cx="32.000" cy="672.000" r="5.000" />
<text class="label" x="43.000" y="663.000" font-size="12">Oak</text>
<circle class="node" cx="32.000" cy="352.000" r="5.000" />
<text class="label" x="43.000" y="343.000" font-size="12">Rose</text>
</svg>
